<svg xmlns="http://www.w3.org/2000/svg" width="30" height="30" viewBox="0 0 30 30">
    <g fill="none" fill-rule="evenodd">
        <g>
            <g transform="translate(-760 -442) translate(760 442)">
                <circle cx="15" cy="15" r="15" fill="#7A26F3"/>
                <path fill="#FFF" fill-rule="nonzero" d="M22.91 20.95L16.801 6.143c-.22-.659-.835-1.12-1.538-1.142h-.528c-.703.022-1.318.461-1.538 1.142l-2.658 6.46H8.519c-.593 0-1.099.505-1.099 1.098v.022c0 .593.484 1.099 1.099 1.099h1.076L7.07 20.972c-.044.132-.066.286-.066.418-.022.308.088.593.307.813.22.22.506.33.813.307.22 0 .44-.065.637-.22.198-.153.33-.329.44-.549l2.79-6.942h1.933c.616 0 1.099-.484 1.099-1.099v-.022c0-.615-.483-1.098-1.099-1.098h-1.032l2.131-5.317 5.8 14.5c.088.22.242.418.44.55.175.132.395.197.637.22.307.021.593-.088.813-.308.197-.22.307-.527.285-.813 0-.198-.022-.33-.088-.461z"/>
            </g>
        </g>
    </g>
</svg>
