<svg xmlns="http://www.w3.org/2000/svg" width="30" height="30" viewBox="0 0 30 30">
    <g fill="none" fill-rule="evenodd">
        <g>
            <g transform="translate(-760 -492) translate(760 492)">
                <circle cx="15" cy="15" r="15" fill="#BBC9DA"/>
                <path fill="#FFF" d="M14.818 11c-1.923 0-3.508 1.423-3.773 3.273H9.91l1.455 2.151 1.454-2.151h-1.035c.258-1.445 1.518-2.546 3.035-2.546 1.705 0 3.091 1.386 3.091 3.091 0 1.705-1.386 3.091-3.09 3.091-1.098 0-2.06-.576-2.609-1.44l-.436.647c.697.922 1.8 1.52 3.044 1.52 2.108 0 3.818-1.71 3.818-3.818S16.926 11 14.818 11zm1.79 3.233l-.046-.123-.065-.143.45-.185.111.265-.45.186zm.574.728h-.487l.005-.144-.005-.144h.487v.288zm-.242.907l-.448-.19.07-.153.042-.112.45.19-.114.265zm-.552.722l-.345-.345.106-.098.098-.106.344.345-.203.204zm-.798.468l-.186-.45.122-.046.143-.065.186.45-.265.111zm-.629.124h-.287v-.487l.143.005.144-.005v.487zm-.929-.13l-.265-.112.19-.448.154.07.11.042-.189.448zm-.824-.422l-.203-.203.384-.385.098.106.106.098-.385.384zm-.63-1.042l.451-.186.045.123.065.142-.45.187-.11-.266zm.67-2.543l.345.345-.106.097-.098.105-.344-.344.204-.203zm1.01 1.55l.31-.308-.433-.432c.192-.137.428-.219.682-.219.654 0 1.182.53 1.182 1.182 0 .653-.528 1.182-1.182 1.182-.653 0-1.181-.529-1.181-1.182 0-.24.072-.463.195-.65l.427.428zm-.211-2.017l.186.45-.122.045-.144.065-.186-.45.266-.11zm.628-.123h.287v.487l-.143-.006-.143.006v-.487h-.001zm.93.129l.264.111-.19.449-.154-.07-.11-.042.19-.448zm.783.461l.203.203-.344.345-.099-.106-.106-.098.346-.344zM7 22.273h16V7H7v15.273zm1.455-1.455h13.09V8.455H8.455v12.363zm0 3.637h3.636V23H8.455v1.455zm9.454 0h3.636V23H17.91v1.455z"/>
            </g>
        </g>
    </g>
</svg>
