<svg width="24" height="24" viewBox="0 0 24 24" fill="none" xmlns="http://www.w3.org/2000/svg">
<mask id="mask0_88_1211" style="mask-type:alpha" maskUnits="userSpaceOnUse" x="0" y="0" width="24" height="24">
<path fill-rule="evenodd" clip-rule="evenodd" d="M0 0H24V24H0V0Z" fill="white"/>
</mask>
<g mask="url(#mask0_88_1211)">
<path fill-rule="evenodd" clip-rule="evenodd" d="M11.9598 6.87233e-05C18.5872 -0.0221217 23.9777 5.33241 23.9999 11.9598C24.0221 18.5872 18.6676 23.9777 12.0402 23.9999C5.41282 24.0221 0.0222824 18.6676 6.25244e-05 12.0402C-0.0221279 5.41283 5.3324 0.0222592 11.9598 6.87233e-05Z" fill="#030C17"/>
</g>
<path opacity="0.1" fill-rule="evenodd" clip-rule="evenodd" d="M19.4999 19.4498C23.6138 15.3064 23.5931 8.61388 19.4498 4.49995C15.3064 0.386029 8.61389 0.406657 4.49996 4.55005L19.4999 19.4498Z" fill="white"/>
<path fill-rule="evenodd" clip-rule="evenodd" d="M18.4861 8.42527L17.1217 7.04905L16.3791 7.80347C16.3761 7.80052 16.3732 7.79758 16.3702 7.79463L15.7661 8.40464L12.05 12.1708L9.69835 9.78676C9.2121 10.2936 8.89089 10.9596 8.82016 11.6964L12.05 14.9704L15.7042 11.2661C15.7514 11.5019 15.7749 11.7465 15.7749 11.997C15.7749 14.0775 14.0804 15.772 11.9999 15.772C9.91937 15.772 8.22488 14.0775 8.22488 11.997C8.22488 9.91642 9.91937 8.22193 11.9999 8.22193C12.8545 8.22193 13.6443 8.50779 14.2779 8.98814L15.8958 7.34669C14.8408 6.46261 13.4822 5.92627 11.9999 5.92627C8.65513 5.92627 5.93216 8.64924 5.93216 11.994C5.93216 15.3417 8.65513 18.0618 11.9999 18.0618C15.3447 18.0618 18.0677 15.3388 18.0677 11.994C18.0677 11.0746 17.8614 10.2052 17.4959 9.42428L18.4861 8.42527Z" fill="white"/>
<mask id="mask1_88_1211" style="mask-type:alpha" maskUnits="userSpaceOnUse" x="8" y="9" width="5" height="6">
<path fill-rule="evenodd" clip-rule="evenodd" d="M8.8231 11.6964L12.05 14.9704H12.053V12.1708L9.70129 9.78674C9.21508 10.2936 8.89383 10.9567 8.8231 11.6964Z" fill="white"/>
</mask>
<g mask="url(#mask1_88_1211)">
<path fill-rule="evenodd" clip-rule="evenodd" d="M8.8231 11.6964L12.05 14.9704H12.053V12.1708L9.70129 9.78674C9.21508 10.2936 8.89383 10.9567 8.8231 11.6964Z" fill="url(#paint0_linear_88_1211)"/>
</g>
<defs>
<linearGradient id="paint0_linear_88_1211" x1="7.20619" y1="12.131" x2="10.5888" y2="13.3088" gradientUnits="userSpaceOnUse">
<stop stop-color="#1C313F"/>
<stop offset="1" stop-color="white"/>
</linearGradient>
</defs>
</svg>
