<svg width="253" height="32" viewBox="0 0 253 32" fill="none" xmlns="http://www.w3.org/2000/svg">
<path d="M161.17 0.725145H149.119V31.3316H161.089C169.512 31.3316 175.88 25.6849 175.88 16.0284C175.88 6.37178 169.593 0.725145 161.17 0.725145ZM161.17 4.89875C167.054 4.89875 171.084 8.70409 171.084 16.0284C171.084 23.3526 166.973 27.158 161.129 27.158H153.875V4.89875H161.17Z" fill="#02080D"/>
<path d="M189.023 9.97254C182.857 9.97254 178.222 14.1871 178.222 20.8566C178.222 27.4853 182.857 31.7407 189.023 31.7407C195.149 31.7407 199.784 27.4853 199.784 20.8566C199.784 14.1871 195.149 9.97254 189.023 9.97254ZM189.023 13.9006C192.57 13.9006 195.23 16.4785 195.23 20.8566C195.23 25.1939 192.57 27.7717 189.023 27.7717C185.436 27.7717 182.817 25.1939 182.817 20.8566C182.817 16.4785 185.436 13.9006 189.023 13.9006Z" fill="#02080D"/>
<path d="M207.675 0.423218H203.162V31.3316H207.675V0.423218Z" fill="#02080D"/>
<path d="M216.554 0.423218H212.04V31.3316H216.554V0.423218Z" fill="#02080D"/>
<path d="M229.148 9.97254C223.989 9.97254 220.926 13.696 220.926 17.3786L225.48 17.5423C225.48 15.6601 226.609 13.9825 229.188 13.9825C231.727 13.9825 232.856 15.6601 232.856 18.3607V18.9744L227.939 19.2608C223.707 19.5064 220.362 21.1021 220.362 25.6031C220.362 29.5312 223.143 31.7407 227.254 31.7407C229.551 31.7407 231.405 30.8406 232.856 29.4494V31.3316H237.41V18.2788C237.41 12.9186 234.468 9.97254 229.148 9.97254ZM232.896 22.5343V23.2708C232.896 26.4624 230.881 27.8945 228.019 27.8945C226.206 27.8945 224.916 27.2807 224.916 25.5213C224.916 23.639 226.448 22.9434 228.584 22.8207L232.896 22.5343Z" fill="#02080D"/>
<path d="M252.233 10.0953C248.928 10.0953 247.115 11.6502 246.349 13.2869V10.3408H241.956V31.3316H246.47V19.9155C246.47 16.8467 248.686 14.5553 252.233 14.5553V10.0953Z" fill="#02080D"/>
<path d="M48.0683 31.287L42.0099 20.8696C41.871 20.8696 41.7842 20.8696 41.6627 20.8696H37.0451V31.287H31.004V0.765217H41.6627C49.1446 0.765217 53.6234 4.81739 53.6234 10.9565C53.6234 15.1478 51.575 18.1913 47.8774 19.7217L54.8385 31.2696H48.0683V31.287ZM37.0624 15.4609H42.4612C45.8116 15.4609 47.374 13.287 47.374 10.9739C47.374 8.57391 45.7595 6.43478 42.4612 6.43478H37.0624V15.4609ZM57.616 31.287V0.765217H63.6571V31.2696H57.616V31.287ZM91.6753 28.1043C90.0262 29.9826 86.4154 31.8957 82.4574 31.8957C73.7083 31.8957 66.6603 25.2348 66.6603 16.0348C66.6603 6.83478 73.7083 0.173913 82.4574 0.173913C88.4985 0.226087 93.5501 3.35652 96.2929 8.24348L90.113 9.86087C88.4638 7.6 85.4606 6.15652 82.4574 6.15652C76.7635 6.15652 72.9792 10.2609 72.9792 16.0522C72.9792 22.1043 77.1628 25.9826 82.8046 25.9826C88.0298 25.9826 90.7726 23.113 91.7274 20.7478V19.4435H83.2907V14.5043H96.9005V31.287H91.6753C91.6753 28.7652 91.7274 28.1565 91.7274 28.1043H91.6753ZM101.154 31.287V0.765217H107.195V31.2696H101.154V31.287ZM138.39 0.765217V31.2696H132.696L124.033 19.4957C121.291 15.7391 117.94 10.9565 117.905 10.9565H117.853C117.819 10.9565 117.905 15.3565 117.905 21.4087V31.2522H111.864V0.765217H117.558L126.394 12.6609C128.477 15.4087 132.314 20.8522 132.349 20.8522H132.401C132.453 20.8522 132.349 15.8783 132.349 10.7478V0.765217H138.39ZM26.6815 7.86087L21.7514 12.8C21.9424 13.7739 22.0465 14.8522 22.0465 16.0174C22.0465 22.2609 19.1128 26 14.2 26C12.1516 26 10.433 25.3391 9.13107 24.087L26.2128 6.97391C25.7614 6.15652 25.2407 5.4087 24.6504 4.71304C24.4074 4.41739 24.147 4.15652 23.8866 3.87826C23.8519 3.84348 23.8172 3.8087 23.7825 3.77391C23.6957 3.70435 23.6262 3.61739 23.5394 3.54783C21.0397 1.21739 17.8629 0 14.2 0C9.98169 0 6.37092 1.61739 3.78436 4.69565C1.33668 7.6 0 11.6174 0 16.0174C0 18.9391 0.590222 21.687 1.70123 24.0522L6.66603 19.0783C6.49244 18.1391 6.40564 17.113 6.40564 16C6.40564 13.1304 6.99586 10.8 8.14159 9.07826C9.49562 7.07826 11.5961 6.01739 14.2 6.01739C16.2311 6.01739 17.9323 6.66087 19.2169 7.86087L2.16993 24.9391C2.63864 25.7913 3.17678 26.5913 3.78436 27.3043C3.90588 27.4435 4.02739 27.5826 4.16627 27.7217C4.30515 27.8783 4.46138 28.0348 4.61762 28.1913C4.63498 28.2087 4.65234 28.2261 4.66969 28.2435C4.72177 28.2957 4.75649 28.3478 4.80857 28.3826C7.29097 30.7478 10.5025 32 14.2 32C18.4357 32 22.0465 30.3826 24.6504 27.3043C27.0981 24.4 28.4522 20.4 28.4522 16C28.4522 13.0435 27.8272 10.2435 26.6815 7.86087Z" fill="#0074F0"/>
</svg>
