<svg width="24" height="24" viewBox="0 0 24 24" fill="none" xmlns="http://www.w3.org/2000/svg">
<path d="M23.9599 11.9599C23.9821 18.5652 18.6454 23.9378 12.0401 23.9599C5.43479 23.982 0.062212 18.6453 0.0400777 12.0401C0.0179434 5.43478 5.35464 0.0621958 11.9599 0.0400615C18.5652 0.0179272 23.9378 5.35462 23.9599 11.9599Z" fill="#030C17"/>
<path opacity="0.2" d="M19.4796 19.4299C23.5822 15.2976 23.5623 8.63223 19.43 4.5297C15.2976 0.427164 8.63227 0.447031 4.52973 4.57936L19.4796 19.4299Z" fill="white"/>
<path d="M13.1223 10.9269C13.0031 10.907 12.8938 10.8772 12.7846 10.8573C11.3144 10.5593 10.2515 10.3507 10.2515 9.32758C10.2515 8.69184 10.8773 8.18523 11.9998 8.18523C13.0031 8.18523 13.7978 8.59251 14.3143 9.35738L14.3938 9.37725L15.9931 7.73823L15.9831 7.67862C15.3474 6.92368 14.5428 6.3972 13.619 6.11907C13.4898 6.07933 13.3706 6.04953 13.2415 6.01973H13.2316C13.1819 6.0098 13.1422 5.99987 13.0925 5.98993V4.53964H10.9071V5.98993C10.8376 5.99987 10.7681 6.01973 10.6985 6.02967H10.6886C9.65552 6.278 8.75157 6.81441 8.04629 7.63889C7.74829 8.13557 7.59928 8.73157 7.59928 9.41699C7.59928 11.7613 9.36744 12.5063 11.0959 12.9235C11.4137 13.003 11.7316 13.0626 12.0396 13.1122C13.1223 13.3109 14.0561 13.4798 14.0561 14.4533C14.0561 15.0592 13.3905 15.8142 11.9998 15.8142C11.1753 15.8142 10.4999 15.536 10.0032 15.0294C9.97339 14.9996 9.93365 14.9698 9.90385 14.94L8.01649 16.2512V16.3208C8.28469 16.6386 8.5827 16.9168 8.90057 17.1552C9.00984 17.2346 9.11911 17.3042 9.22838 17.3737C9.22838 17.3737 9.22838 17.3737 9.23831 17.3737C9.34758 17.4432 9.46678 17.5028 9.57605 17.5624C9.57605 17.5624 9.58598 17.5624 9.58598 17.5724C9.70518 17.632 9.81445 17.6816 9.93365 17.7313C9.94359 17.7313 9.94359 17.7313 9.95352 17.7412C10.0727 17.7909 10.1919 17.8307 10.3111 17.8704C10.3211 17.8704 10.331 17.8704 10.331 17.8803C10.3906 17.9002 10.4403 17.9101 10.4999 17.93C10.5098 17.93 10.5098 17.93 10.5197 17.93C10.5793 17.9499 10.6389 17.9598 10.7085 17.9797C10.7184 17.9797 10.7283 17.9797 10.7383 17.9896C10.7879 17.9995 10.8475 18.0095 10.8972 18.0194V19.4697H13.0826V18.0194C13.1223 18.0095 13.162 18.0095 13.2018 17.9995C13.2117 17.9995 13.2117 17.9995 13.2216 17.9995C13.3706 17.9697 13.5196 17.93 13.6686 17.8803C13.7382 17.8604 13.8176 17.8306 13.8872 17.8108C14.6918 17.5128 15.3971 17.0161 15.9732 16.3406C16.1918 16.0824 16.3805 15.8142 16.5494 15.5161C16.6388 15.1983 16.6785 14.8407 16.6785 14.4632C16.6884 11.9401 14.7812 11.2547 13.1223 10.9269Z" fill="#FAFBFC"/>
<path d="M8.02646 16.3108C7.91719 16.1817 7.81786 16.0526 7.72846 15.9135C7.68872 15.8539 7.64899 15.7943 7.60925 15.7446C7.59932 15.7347 7.58939 15.7148 7.57945 15.7049C7.54965 15.6552 7.50992 15.5956 7.48012 15.536C7.47019 15.5162 7.46025 15.4963 7.45032 15.4764C7.42052 15.4268 7.39072 15.3672 7.36092 15.3175C7.35098 15.2976 7.34105 15.2778 7.33112 15.2579C7.30132 15.2082 7.27152 15.1486 7.25165 15.089C7.24172 15.0692 7.23178 15.0394 7.22185 15.0195C7.19205 14.9599 7.17218 14.9102 7.14238 14.8506C7.13245 14.8307 7.12251 14.8109 7.11258 14.7811C7.09271 14.7215 7.06291 14.6619 7.04305 14.6023C7.04305 14.5923 7.03311 14.5725 7.03311 14.5625C6.98344 14.4235 6.93378 14.2844 6.89404 14.1453C6.89404 14.1354 6.88411 14.1255 6.88411 14.1056C6.87418 14.0559 6.85431 14.0063 6.84438 13.9566C6.83444 13.9169 6.82451 13.8771 6.81458 13.8374C6.80464 13.7877 6.79471 13.748 6.78478 13.6983C6.77484 13.6586 6.76491 13.6089 6.75497 13.5692C6.74504 13.5195 6.73511 13.4798 6.72517 13.4301C6.71524 13.3805 6.70531 13.3308 6.69537 13.2811C6.68544 13.2414 6.68544 13.1917 6.67551 13.152C6.66557 13.1023 6.65564 13.0527 6.65564 12.9931C6.64571 12.9533 6.64571 12.9136 6.63577 12.8639C6.62584 12.8043 6.62584 12.7546 6.61591 12.695C6.61591 12.6553 6.60597 12.6156 6.60597 12.5758C6.60597 12.5063 6.59604 12.4467 6.59604 12.3772C6.59604 12.3474 6.59604 12.3176 6.58611 12.2778C6.58611 12.1785 6.57617 12.0792 6.57617 11.9798C6.57617 11.8805 6.57617 11.7911 6.58611 11.6918C6.58611 11.662 6.58611 11.6322 6.58611 11.6024C6.58611 11.5328 6.59604 11.4732 6.59604 11.4037C6.59604 11.3739 6.60597 11.3342 6.60597 11.3044C6.61591 11.2448 6.61591 11.1752 6.62584 11.1156C6.62584 11.0858 6.63577 11.056 6.63577 11.0262C6.64571 10.9468 6.65564 10.8772 6.66557 10.8077C6.66557 10.7878 6.66557 10.7679 6.67551 10.758C6.68544 10.6686 6.70531 10.5792 6.72517 10.4898C6.73511 10.46 6.73511 10.4302 6.74504 10.4103C6.75497 10.3507 6.77484 10.2911 6.78478 10.2315C6.79471 10.2017 6.80464 10.162 6.80464 10.1322C6.81458 10.0726 6.83444 10.0229 6.84438 9.96334C6.85431 9.93354 6.86424 9.8938 6.87418 9.864C6.89404 9.8044 6.91391 9.7448 6.92384 9.6852C6.93378 9.6554 6.94371 9.63553 6.95364 9.60573C6.98344 9.52626 7.01325 9.44679 7.04305 9.36733C7.05298 9.33753 7.06291 9.31766 7.07285 9.28786C7.09271 9.22826 7.11258 9.17859 7.14238 9.11899C7.15231 9.08919 7.17218 9.05939 7.18211 9.01965C7.20198 8.96999 7.22185 8.93025 7.25165 8.88059C7.27152 8.85079 7.28145 8.81105 7.30132 8.78125C7.32118 8.73158 7.35098 8.69185 7.37085 8.64218C7.39072 8.61238 7.40065 8.58258 7.42052 8.55278C7.46025 8.48325 7.49999 8.41371 7.53972 8.34418C7.45032 8.67198 7.41058 9.02959 7.41058 9.40706C7.41058 10.6984 7.95693 11.6818 9.03968 12.3474C9.09928 13.5096 9.43702 14.4235 10.0132 15.0095L8.02646 16.3108Z" fill="url(#paint0_linear_88_1175)"/>
<path d="M14.3243 9.35739C14.662 9.864 14.8806 10.4997 14.96 11.2646C15.2382 11.3938 15.4766 11.5428 15.6951 11.7116C16.4997 12.3374 16.907 13.2513 16.907 14.4135C16.907 14.5526 16.8971 14.6917 16.8871 14.8307V14.8208C16.9269 14.7314 16.9666 14.6321 16.9964 14.5327C17.0063 14.5029 17.0163 14.4831 17.0262 14.4533C17.0461 14.3837 17.0759 14.3142 17.0957 14.2447C17.1057 14.2149 17.1156 14.1751 17.1255 14.1453C17.1355 14.1056 17.1553 14.0559 17.1653 14.0162C17.1851 13.9566 17.1951 13.9069 17.2149 13.8473C17.2249 13.8076 17.2348 13.7579 17.2447 13.7182C17.2547 13.6685 17.2646 13.6189 17.2745 13.5692C17.2845 13.5394 17.2845 13.4997 17.2944 13.4699C17.3043 13.4003 17.3242 13.3209 17.3341 13.2513C17.3341 13.2215 17.3441 13.1917 17.3441 13.1619C17.354 13.0825 17.3639 13.003 17.3739 12.9235C17.3739 12.9037 17.3739 12.8937 17.3838 12.8738C17.3937 12.7944 17.4037 12.7248 17.4037 12.6454C17.4037 12.6255 17.4037 12.6056 17.4136 12.5858C17.4235 12.4964 17.4235 12.407 17.4335 12.3176C17.4335 12.2977 17.4335 12.2778 17.4335 12.258C17.4335 12.1686 17.4434 12.0692 17.4434 11.9798C17.4434 11.8805 17.4434 11.7812 17.4335 11.6719C17.4335 11.6421 17.4335 11.6123 17.4235 11.5726C17.4235 11.503 17.4136 11.4335 17.4136 11.3739C17.4136 11.3342 17.4037 11.2944 17.4037 11.2547C17.3937 11.1951 17.3937 11.1355 17.3838 11.0759C17.3838 11.0362 17.3739 10.9964 17.3639 10.9468C17.354 10.8872 17.354 10.8375 17.3441 10.7779C17.3341 10.7381 17.3341 10.6885 17.3242 10.6487C17.3143 10.5991 17.3043 10.5395 17.2944 10.4898C17.2845 10.4501 17.2745 10.4004 17.2646 10.3607C17.2547 10.311 17.2447 10.2613 17.2348 10.2117C17.2249 10.1719 17.2149 10.1223 17.205 10.0825C17.1951 10.0329 17.1752 9.9832 17.1653 9.93354C17.1553 9.8938 17.1454 9.84414 17.1255 9.8044C17.1156 9.75473 17.0957 9.715 17.0858 9.66533C17.0759 9.6256 17.056 9.57593 17.0461 9.5362C17.0262 9.48653 17.0163 9.4468 16.9964 9.40706C16.9765 9.36733 16.9666 9.31766 16.9467 9.27793C16.9269 9.23819 16.9169 9.18853 16.8971 9.14879C16.8772 9.10906 16.8573 9.05939 16.8474 9.01966C16.8275 8.97992 16.8077 8.94019 16.7878 8.90045C16.7679 8.86072 16.7481 8.82099 16.7282 8.77132C16.7083 8.73158 16.6885 8.69185 16.6686 8.65212C16.6487 8.61238 16.6289 8.57265 16.5991 8.53291C16.5792 8.49318 16.5593 8.45345 16.5295 8.42365C16.5097 8.38391 16.4799 8.34418 16.46 8.30444C16.4401 8.26471 16.4103 8.23491 16.3905 8.19518C16.3209 8.08591 16.2415 7.97664 16.162 7.86737C16.1024 7.7879 16.0428 7.71837 15.9832 7.64883L14.3243 9.35739Z" fill="url(#paint1_linear_88_1175)"/>
<defs>
<linearGradient id="paint0_linear_88_1175" x1="10.0318" y1="12.5725" x2="5.37084" y2="9.10236" gradientUnits="userSpaceOnUse">
<stop offset="0.00058093" stop-color="white"/>
<stop offset="1" stop-color="#1E313F"/>
</linearGradient>
<linearGradient id="paint1_linear_88_1175" x1="14.0975" y1="10.8255" x2="18.4019" y2="14.1813" gradientUnits="userSpaceOnUse">
<stop offset="0.00058093" stop-color="white"/>
<stop offset="0.9967" stop-color="#4E5A64"/>
</linearGradient>
</defs>
</svg>
